PathFileType	4	(X/Y/Z)	C:\Users\°ÂÌØÂü\Desktop\20210112\bx_n_0_502-Unnamed.trc
DataRate	CameraRate	NumFrames	NumMarkers	Units	OrigDataRate	OrigDataStartFrame	OrigNumFrames
50.00	50.00	       7	0	mm	50.00	48	       376
Frame#	Time	
		

48	0.940	-588.07111	239.45174	1061.70764	-672.16986	283.17459	872.17383	-574.76587	-2.04247	799.31458	-579.44940	214.04980	790.19379	-680.15094	268.98099	741.72192	-715.81512	252.61664	641.81354	-715.60101	245.61653	574.60162	-660.66937	19.64002	516.98468	-669.44733	196.99838	533.19019	-753.84851	260.10947	501.19421	-723.75671	71.88530	215.44991	-641.49365	-58.73369	163.55154	-761.28149	224.04968	205.29416	-599.52576	-61.50871	160.28021	-882.86407	296.11694	144.57585	-676.83295	58.85009	156.53087	-600.43805	38.32881	166.14377	-546.42041	-13.69403	164.71605	-517.70892	-72.91471	143.28874	-588.83936	184.20540	174.26041	-640.70490	274.15207	160.01624	-602.24036	274.52835	159.61998	-546.47589	213.86229	165.35986	-528.20984	304.20206	146.31906	-644.90912	115.57584	1852.76855	-701.26636	283.77753	1531.96887	-575.22412	104.77798	1353.87756	-795.80249	180.09340	184.39275	-671.29669	-77.81502	1540.47144	-794.33728	34.30560	175.19803	-784.51703	90.69363	1063.62024	-745.63873	-50.21685	487.76926	-754.80750	-20.85916	207.19467	-876.12219	-78.89765	141.41621	-647.38080	-73.90103	869.85114	-667.46844	-64.33434	753.75671	-694.14899	-36.66431	612.70325	-702.57190	-34.26101	566.46912	-719.09106	142.44855	217.76688	-678.59393	153.90964	157.72664	-578.77612	-6.74295	1050.45813	
49	0.960	-588.08972	239.52628	1061.64441	-672.09515	283.07111	872.23175	-574.76587	-2.04247	799.31458	-579.39783	214.07007	790.13190	-679.92944	269.03653	741.92871	-715.82086	252.52708	641.69263	-715.67566	245.43578	574.55359	-660.68298	19.46117	517.06036	-669.38837	197.05559	533.37793	-753.72876	260.38980	501.31772	-723.57849	71.91531	215.32132	-641.49365	-58.73369	163.55154	-760.58795	223.84158	205.16893	-599.55225	-61.46428	160.22594	-882.78320	296.17990	144.71732	-676.77155	58.88092	156.34828	-600.43805	38.32881	166.14377	-546.45697	-13.67906	164.65630	-517.75958	-72.81877	143.15851	-588.91876	184.31192	174.23404	-640.68262	274.10104	159.93085	-602.33710	274.53934	159.51501	-546.47589	213.86229	165.35986	-528.20935	304.12814	146.35110	-644.56995	115.86443	1852.71948	-701.08380	283.87997	1531.93835	-575.19202	104.85605	1353.74829	-795.74762	180.12614	184.63481	-671.15594	-77.82541	1540.47498	-794.24408	34.38050	175.25423	-784.45038	90.72476	1063.62805	-745.75714	-50.40183	487.63440	-754.53632	-20.94709	207.41687	-876.12219	-78.89765	141.41621	-647.30701	-73.83026	869.66089	-667.56726	-64.22137	753.59961	-694.14899	-36.66431	612.70325	-702.40137	-34.55189	566.49139	-718.80792	142.46935	217.58525	-678.74182	153.99081	157.88565	-578.72125	-6.81765	1050.39075	
50	0.980	-587.84979	239.40485	1061.65662	-672.23096	283.31006	872.24847	-574.76587	-2.04247	799.31458	-579.22443	213.99747	790.25958	-680.09705	268.75195	741.73596	-715.76746	252.58347	641.71173	-715.52710	245.74797	574.70178	-660.83655	19.49472	516.94379	-669.42792	197.20456	533.14545	-753.70593	260.24649	501.10327	-723.84790	72.19691	215.60645	-641.65070	-58.90411	163.49298	-760.52576	223.88559	205.26611	-599.63141	-61.71947	160.08150	-882.67102	296.21390	144.65089	-676.90222	58.94152	156.41418	-600.42542	38.42341	166.23279	-546.55249	-13.70274	164.68607	-517.72314	-72.93130	143.29219	-588.87463	184.20262	174.29442	-640.73724	274.10089	159.62854	-602.33881	274.64136	159.50638	-546.57800	213.82903	165.37756	-528.20984	304.20206	146.31906	-644.45276	115.91405	1852.77551	-700.87219	283.89584	1531.96643	-575.02313	104.65536	1353.71680	-795.59381	179.93425	184.56670	-671.02875	-77.78102	1540.48352	-794.23462	34.41632	175.32466	-784.28674	90.62378	1063.54993	-745.69836	-50.33149	487.62070	-754.68683	-21.00467	207.36711	-876.12219	-78.89765	141.41621	-647.28973	-74.01355	869.78497	-667.56818	-64.11054	753.64307	-694.15424	-36.27146	612.48541	-702.34229	-34.36403	566.32770	-719.08502	142.70341	217.52151	-678.74182	153.99081	157.88565	-578.54773	-7.08855	1050.47131	
51	1.000	-587.79858	239.16608	1061.74438	-672.09515	283.07111	872.23175	-574.76587	-2.04247	799.31458	-579.28839	214.05804	790.08368	-679.80084	268.70273	741.75641	-715.76746	252.58347	641.71173	-715.79254	245.38016	574.43329	-660.71442	19.49641	516.92114	-669.44696	197.02274	533.14587	-753.63391	260.33423	501.07736	-723.57849	71.91531	215.32132	-641.69080	-59.07099	163.28401	-760.52576	223.88559	205.26611	-599.83197	-61.33321	160.19188	-882.80322	296.00290	144.53152	-676.83295	58.85009	156.53087	-600.34277	38.32885	166.00935	-546.46118	-13.61135	164.84892	-517.70050	-72.83905	143.16924	-588.95837	184.14769	174.07707	-640.78491	274.04343	160.06769	-602.26477	274.54739	159.45546	-546.48438	213.82359	165.25064	-528.04504	304.09933	146.13448	-644.04651	116.19662	1852.72534	-700.72046	283.94254	1531.94397	-574.79846	104.54319	1353.78113	-795.71582	180.06639	184.61011	-670.62988	-77.82544	1540.61865	-794.40302	34.34628	175.10109	-784.26263	90.66479	1063.61694	-745.65613	-50.27092	487.73074	-754.87195	-20.65790	207.34944	-876.12219	-78.89765	141.41621	-647.35931	-74.12907	869.77954	-667.46069	-64.40150	753.77661	-694.19025	-36.28881	612.40839	-702.16467	-34.26478	566.36853	-718.98547	142.33524	217.78323	-678.81726	153.70070	157.61806	-578.49652	-6.98391	1050.49756	
52	1.020	-587.72473	239.24873	1061.75061	-671.89160	283.28064	872.42322	-574.76587	-2.04247	799.31458	-579.07678	213.96422	790.21820	-679.85736	268.87567	741.81647	-715.51880	252.47035	641.61194	-715.79254	245.38016	574.43329	-660.63354	19.57099	516.88104	-669.32874	196.82906	532.97284	-753.55731	260.30237	500.95096	-723.66968	72.22694	215.47789	-641.50848	-58.75359	164.01041	-761.32898	224.04924	205.32678	-599.43799	-61.69883	160.68210	-882.61115	295.92255	144.45959	-676.83295	58.85009	156.53087	-600.43805	38.32881	166.14377	-546.45874	-13.72431	164.67499	-517.81940	-73.01160	143.19272	-588.91351	184.21153	174.10806	-640.64716	274.20691	159.75041	-602.41925	274.52780	159.45657	-546.48438	213.82359	165.25064	-528.05939	303.95163	146.02577	-643.81702	116.16896	1852.65137	-700.54156	283.89297	1532.12341	-574.82269	104.60835	1353.70776	-795.62268	180.08435	184.61937	-670.41815	-77.83884	1540.57422	-794.29865	34.46643	175.31090	-784.09381	90.72941	1063.67041	-745.62604	-50.52678	487.73645	-754.72174	-20.82996	207.33054	-876.10693	-78.99421	141.26549	-647.16193	-73.92262	869.80194	-667.46252	-64.33994	753.73975	-694.14374	-36.47449	612.42682	-702.46759	-34.42630	566.41211	-718.83319	142.28403	217.95758	-678.81409	153.69652	158.01920	-578.51917	-7.04021	1050.42065	
53	1.040	-587.75079	239.33910	1061.68591	-671.97455	283.24863	872.28424	-574.76587	-2.04247	799.31458	-579.25134	214.08945	790.17621	-679.82043	268.55499	741.80078	-715.59784	252.41600	641.63721	-715.60242	245.56801	574.65179	-660.49011	19.32945	517.13934	-669.40247	196.97971	533.09271	-753.70593	260.24649	501.10327	-723.57849	71.91531	215.32132	-641.28992	-58.65650	163.70384	-760.52576	223.88559	205.26611	-599.53833	-61.58883	160.50919	-882.64172	295.97809	144.42909	-676.83295	58.85009	156.53087	-600.40472	38.36750	166.14046	-546.57312	-13.58922	164.59625	-517.70892	-72.91471	143.28874	-588.91876	184.31192	174.23404	-640.73773	274.33029	159.83839	-602.35022	274.44653	159.51781	-546.52917	213.77647	165.36104	-528.37946	304.01703	146.31387	-643.57562	116.14565	1852.69873	-700.42236	283.72278	1532.00208	-574.75037	104.67893	1353.53394	-795.51825	180.02057	184.50500	-670.26337	-77.82780	1540.57349	-794.26691	34.35999	175.17371	-784.08350	90.74140	1063.65015	-745.68475	-50.48732	487.61237	-754.68683	-21.00467	207.36711	-876.12219	-78.89765	141.41621	-647.21210	-73.90349	869.72021	-667.43140	-64.26535	753.79004	-694.05762	-36.18224	612.35901	-702.20636	-34.26184	566.27502	-718.83319	142.28403	217.95758	-678.81409	153.69652	158.01920	-578.49652	-6.98391	1050.49756	
54	1.060	-587.72473	239.24873	1061.75061	-671.76563	283.46011	872.48480	-574.63721	-2.00932	799.32501	-579.02539	213.93407	790.14105	-679.60962	268.78455	742.08722	-715.65454	252.35173	641.61304	-715.61230	245.62979	574.56757	-660.56085	19.46287	517.03772	-669.27954	196.89886	533.22510	-753.69659	260.13763	500.90411	-723.66968	72.22694	215.47789	-641.47168	-58.98711	163.62204	-760.52576	223.88559	205.26611	-599.64240	-61.42886	160.33257	-882.67010	296.06631	144.56978	-676.83295	58.85009	156.53087	-600.42542	38.42341	166.23279	-546.45215	-13.60675	164.85970	-517.72314	-72.93130	143.29219	-588.91351	184.21153	174.10806	-640.61835	274.05981	159.96684	-602.41113	274.63330	159.56593	-546.57800	213.82903	165.37756	-528.30585	304.11691	146.33821	-643.21997	116.42805	1852.68311	-700.37036	283.73645	1532.06384	-574.56348	104.65301	1353.53601	-795.96967	180.19229	184.88403	-669.97723	-77.85400	1540.60815	-794.44751	34.34007	175.42166	-784.01678	90.84123	1063.62109	-745.81848	-50.28253	487.51294	-754.68683	-21.00467	207.36711	-876.12219	-78.89765	141.41621	-647.05695	-74.03987	869.87030	-667.49567	-64.37424	753.64600	-694.15424	-36.27146	612.48541	-702.38654	-34.51376	566.54694	-718.83917	142.14883	217.87483	-678.72656	153.51408	158.07280	-578.42218	-7.09047	1050.45032	
